<?xml version="1.0" encoding="UTF-8"?>
<svg width="65px" height="38px" viewBox="0 0 65 38" version="1.1" xmlns="http://www.w3.org/2000/svg" xmlns:xlink="http://www.w3.org/1999/xlink">
    <!-- Generator: Sketch 51.2 (57519) - http://www.bohemiancoding.com/sketch -->
    <title>Group 4</title>
    <desc>Created with Sketch.</desc>
    <defs></defs>
    <g id="Symbols" stroke="none" stroke-width="1" fill="none" fill-rule="evenodd">
        <g id="Navigation" transform="translate(-60.000000, -44.000000)" fill="#000000">
            <g id="Group-6">
                <g id="Group-4" transform="translate(60.000000, 44.000000)">
                    <path d="M50.0358096,14.0012995 C51.9714151,14.0012995 53.700801,15.143213 54.5134286,16.918837 L56.624627,16.918837 C55.7262447,14.032162 53.0453903,12.0281553 50.0358096,12.0281553 C46.2217685,12.0281553 43.1182661,15.155558 43.1182661,18.9989712 C43.1182661,22.8423845 46.2217685,25.9718447 50.0358096,25.9718447 C53.0433485,25.9718447 55.7282865,23.967838 56.6287105,21.0791055 L54.5134286,21.0791055 C53.7069263,22.832097 51.9428302,23.9987005 50.0358096,23.9987005 C47.2998272,23.9987005 45.0742893,21.7560236 45.0742893,18.9989712 C45.0742893,16.2439764 47.2998272,14.0012995 50.0358096,14.0012995 Z M65,0 L0,0 L0,1.92787915 L31.543427,1.92787915 L31.543427,36.0721209 L0,36.0721209 L0,38 L65,38 L65,36.0721209 L33.4545312,36.0721209 L33.4545312,1.92787915 L65,1.92787915 L65,0 Z M12.4058426,25.4307217 L15.0887388,16.4991066 L17.753259,25.3710542 L17.771635,25.4307217 L19.325428,25.4307217 L23.1905136,12.5692783 L21.2324486,12.5692783 L18.5495524,21.679896 L15.8829904,12.6289458 L15.8666562,12.5692783 L14.3108214,12.5692783 L11.6279252,21.679896 L8.96340506,12.6289458 L8.94502906,12.5692783 L6.98696403,12.5692783 L10.8336736,25.3710542 L10.8520496,25.4307217 L12.4058426,25.4307217 Z" id="Fill-1"></path>
                </g>
            </g>
        </g>
    </g>
</svg>